<?xml version="1.0" standalone="no"?>
<!DOCTYPE svg PUBLIC "-//W3C//DTD SVG 20010904//EN"
 "http://www.w3.org/TR/2001/REC-SVG-20010904/DTD/svg10.dtd">
<svg version="1.0" xmlns="http://www.w3.org/2000/svg"
 width="512.000000pt" height="512.000000pt" viewBox="0 0 512.000000 512.000000"
 preserveAspectRatio="xMidYMid meet">
<metadata>
Created by potrace 1.16, written by Peter Selinger 2001-2019
</metadata>
<g transform="translate(0.000000,512.000000) scale(0.100000,-0.100000)"
fill="#000000" stroke="none">
<path d="M1655 5106 c-56 -17 -80 -32 -127 -74 -49 -45 -79 -91 -101 -156 -15
-44 -17 -120 -17 -715 0 -616 2 -668 18 -687 9 -12 163 -158 342 -325 179
-167 326 -309 326 -314 2 -12 -532 -525 -546 -525 -5 0 -240 37 -522 81 -303
49 -544 82 -588 82 -105 0 -178 -29 -251 -102 -72 -72 -101 -144 -100 -251 1
-160 90 -285 240 -335 60 -19 1484 -285 1530 -285 33 0 59 24 411 375 l375
375 288 -288 287 -287 -211 -210 c-116 -116 -221 -228 -234 -250 -51 -87 -51
-223 0 -310 13 -22 212 -227 442 -456 462 -460 448 -449 578 -449 84 0 145 23
205 77 102 91 136 224 90 348 -21 55 -43 81 -286 325 -167 168 -264 273 -264
286 0 12 113 142 291 334 343 371 361 393 388 465 20 54 21 74 21 585 l0 530
-52 57 c-29 32 -215 229 -413 438 -381 400 -395 412 -504 436 -194 41 -371
-112 -359 -311 7 -127 18 -140 376 -479 l322 -304 0 -95 0 -96 -37 35 c-21 20
-356 320 -745 668 l-707 632 -3 462 -3 462 -33 67 c-40 81 -111 149 -188 177
-63 24 -175 27 -239 7z"/>
<path d="M4360 1576 c-132 -37 -271 -149 -330 -265 -155 -308 -1 -667 329
-765 67 -20 207 -21 276 -2 177 47 330 196 381 371 22 77 22 214 -1 291 -48
166 -191 314 -354 364 -74 23 -228 26 -301 6z"/>
</g>
</svg>
