<?xml version="1.0" standalone="no"?>
<!DOCTYPE svg PUBLIC "-//W3C//DTD SVG 20010904//EN"
 "http://www.w3.org/TR/2001/REC-SVG-20010904/DTD/svg10.dtd">
<svg version="1.0" xmlns="http://www.w3.org/2000/svg"
 width="512.000000pt" height="512.000000pt" viewBox="0 0 512.000000 512.000000"
 preserveAspectRatio="xMidYMid meet">
<metadata>
Created by potrace 1.16, written by Peter Selinger 2001-2019
</metadata>
<g transform="translate(0.000000,512.000000) scale(0.100000,-0.100000)"
fill="#000000" stroke="none">
<path d="M3985 5029 c-199 -25 -382 -183 -439 -378 -20 -67 -21 -217 -2 -286
36 -135 147 -275 265 -335 308 -155 667 -1 765 329 20 67 21 207 2 276 -47
176 -199 332 -367 378 -72 20 -151 26 -224 16z"/>
<path d="M2113 4188 c-32 -29 -229 -215 -438 -413 -400 -381 -412 -395 -436
-504 -41 -194 112 -371 311 -359 127 7 140 18 479 376 l304 322 95 0 96 0 -35
-37 c-20 -21 -320 -356 -668 -745 l-632 -707 -462 -3 -462 -3 -67 -33 c-82
-40 -149 -111 -178 -190 -28 -74 -25 -202 7 -273 24 -55 83 -123 133 -154 90
-56 78 -55 799 -55 616 0 668 2 687 18 12 9 159 164 328 345 168 180 309 326
313 326 12 -2 523 -538 523 -549 0 -5 -37 -240 -81 -522 -49 -303 -82 -544
-82 -588 0 -105 29 -178 102 -251 72 -72 144 -101 251 -100 160 1 285 90 335
240 19 60 285 1484 285 1530 0 33 -24 59 -375 411 l-375 375 288 288 287 287
210 -211 c116 -116 228 -221 250 -234 87 -51 223 -51 310 0 22 13 227 212 456
442 460 462 449 448 449 578 0 84 -23 145 -77 205 -91 102 -224 136 -348 90
-55 -21 -81 -43 -325 -286 -168 -167 -273 -264 -286 -264 -12 0 -142 113 -334
291 -371 343 -393 361 -465 388 -54 20 -74 21 -585 21 l-530 0 -57 -52z"/>
</g>
</svg>
