<?xml version="1.0" standalone="no"?>
<!DOCTYPE svg PUBLIC "-//W3C//DTD SVG 20010904//EN"
 "http://www.w3.org/TR/2001/REC-SVG-20010904/DTD/svg10.dtd">
<svg version="1.0" xmlns="http://www.w3.org/2000/svg"
 width="512.000000pt" height="512.000000pt" viewBox="0 0 512.000000 512.000000"
 preserveAspectRatio="xMidYMid meet">
<metadata>
Created by potrace 1.16, written by Peter Selinger 2001-2019
</metadata>
<g transform="translate(0.000000,512.000000) scale(0.100000,-0.100000)"
fill="#000000" stroke="none">
<path d="M990 5030 c-208 -26 -391 -188 -446 -395 -19 -69 -18 -209 2 -276 41
-138 140 -262 261 -326 209 -112 462 -75 628 92 107 107 155 224 155 381 0
113 -23 194 -80 281 -116 177 -314 269 -520 243z"/>
<path d="M1827 4216 c-72 -30 -76 -33 -457 -385 -192 -178 -322 -291 -334
-291 -13 0 -118 97 -286 264 -244 243 -270 265 -325 286 -124 46 -257 12 -348
-90 -54 -60 -77 -121 -77 -205 0 -130 -11 -116 449 -578 229 -230 434 -429
456 -442 87 -51 223 -51 310 0 22 13 134 118 250 234 l210 211 287 -287 288
-288 -375 -375 c-351 -352 -375 -378 -375 -411 0 -46 266 -1470 285 -1530 50
-150 175 -239 335 -240 107 -1 179 28 251 100 73 73 102 146 102 251 0 44 -33
285 -82 588 -44 282 -81 517 -81 522 0 8 499 536 520 551 3 2 144 -144 314
-326 170 -181 318 -338 330 -347 19 -16 71 -18 687 -18 721 0 709 -1 799 55
50 31 109 99 133 154 32 71 35 199 7 273 -29 79 -96 150 -178 190 l-67 33
-462 3 -462 3 -632 707 c-348 389 -648 724 -668 745 l-35 37 96 0 95 0 304
-322 c339 -358 352 -369 479 -376 199 -12 352 165 311 359 -24 109 -36 123
-436 504 -209 198 -406 384 -438 413 l-57 52 -533 0 -532 0 -58 -24z"/>
</g>
</svg>
