<?xml version="1.0" standalone="no"?>
<!DOCTYPE svg PUBLIC "-//W3C//DTD SVG 20010904//EN"
 "http://www.w3.org/TR/2001/REC-SVG-20010904/DTD/svg10.dtd">
<svg version="1.0" xmlns="http://www.w3.org/2000/svg"
 width="512.000000pt" height="512.000000pt" viewBox="0 0 512.000000 512.000000"
 preserveAspectRatio="xMidYMid meet">
<metadata>
Created by potrace 1.16, written by Peter Selinger 2001-2019
</metadata>
<g transform="translate(0.000000,512.000000) scale(0.100000,-0.100000)"
fill="#000000" stroke="none">
<path d="M1213 5103 c-58 -20 -138 -95 -170 -157 -38 -74 -42 -171 -13 -251
21 -55 43 -81 286 -325 167 -168 264 -273 264 -286 0 -12 -113 -142 -291 -334
-343 -371 -361 -393 -388 -465 -20 -54 -21 -74 -21 -585 l0 -530 52 -57 c29
-32 215 -229 413 -438 381 -400 395 -412 504 -436 194 -41 371 112 359 311 -7
127 -18 140 -376 479 l-322 304 0 95 0 96 38 -35 c20 -20 355 -320 744 -668
l707 -632 3 -462 3 -462 33 -67 c40 -82 111 -149 190 -178 74 -28 202 -25 273
7 55 24 123 83 154 133 56 90 55 78 55 799 0 616 -2 668 -18 687 -9 12 -164
159 -345 328 -180 168 -327 309 -328 312 -1 9 540 524 551 524 5 0 240 -37
522 -81 303 -49 544 -82 588 -82 105 0 178 29 251 102 72 72 101 144 100 251
-1 160 -90 285 -240 335 -60 19 -1484 285 -1530 285 -33 0 -59 -24 -411 -375
l-375 -375 -288 288 -287 287 211 210 c116 116 221 228 234 250 51 87 51 223
0 310 -13 22 -212 227 -442 456 -374 373 -423 418 -467 433 -61 20 -166 20
-223 -1z"/>
<path d="M480 4576 c-174 -49 -325 -198 -376 -371 -22 -77 -22 -214 1 -291 48
-166 191 -314 354 -364 75 -24 220 -27 296 -6 135 36 275 147 335 265 155 308
1 667 -329 765 -65 19 -215 20 -281 2z"/>
</g>
</svg>
