<?xml version="1.0" standalone="no"?>
<!DOCTYPE svg PUBLIC "-//W3C//DTD SVG 20010904//EN"
 "http://www.w3.org/TR/2001/REC-SVG-20010904/DTD/svg10.dtd">
<svg version="1.0" xmlns="http://www.w3.org/2000/svg"
 width="1280.000000pt" height="804.000000pt" viewBox="0 0 1280.000000 804.000000"
 preserveAspectRatio="xMidYMid meet">
<metadata>
Created by potrace 1.15, written by Peter Selinger 2001-2017
</metadata>
<g transform="translate(0.000000,804.000000) scale(0.100000,-0.100000)"
fill="#2196f3" stroke="none">
<path d="M10995 8034 c-16 -2 -79 -9 -140 -15 -134 -13 -280 -35 -665 -99
-1285 -214 -2168 -306 -2661 -280 -280 15 -425 36 -859 120 -609 119 -991 172
-1555 216 -185 14 -354 15 -1445 10 -1395 -7 -1859 -12 -2240 -27 -945 -35
-1390 -134 -1426 -318 -6 -27 3 -52 49 -144 31 -62 66 -148 77 -191 25 -97 26
-227 4 -333 -18 -88 -75 -237 -111 -290 -32 -48 -22 -70 48 -105 56 -27 254
-91 395 -128 108 -28 141 -49 150 -95 9 -51 -34 -134 -111 -210 -71 -71 -134
-105 -260 -140 -108 -29 -132 -46 -165 -111 -22 -43 -25 -61 -24 -149 1 -156
47 -349 173 -717 225 -659 263 -774 290 -883 74 -299 65 -445 -30 -497 -30
-17 -47 -18 -146 -12 -108 6 -115 5 -167 -20 -59 -29 -97 -76 -117 -147 -20
-69 -14 -237 15 -424 70 -443 110 -578 219 -739 85 -126 189 -208 435 -343
l122 -68 -52 -8 c-171 -24 -305 -176 -316 -356 -4 -63 -9 -82 -32 -111 -78
-101 -115 -208 -107 -306 4 -50 18 -91 70 -201 74 -159 110 -259 134 -382 10
-47 18 -87 19 -89 4 -8 575 -152 605 -152 19 0 60 -7 89 -16 31 -9 71 -14 93
-11 30 4 43 1 58 -14 20 -20 89 -27 89 -9 0 6 7 10 15 10 8 0 15 -4 15 -8 0
-5 30 -16 68 -24 37 -9 129 -32 204 -51 258 -67 550 -104 681 -87 112 14 174
48 271 148 106 108 171 142 288 149 68 4 100 0 178 -21 52 -14 293 -62 536
-105 303 -54 454 -86 482 -100 57 -29 146 -51 208 -51 63 0 160 29 205 61 l32
23 186 -37 c456 -91 752 -136 946 -144 189 -8 280 3 700 79 89 16 160 22 275
22 169 0 242 -10 486 -69 80 -19 152 -35 160 -35 36 0 -1 30 -142 115 -159 96
-183 123 -104 117 60 -5 341 -76 445 -113 302 -106 610 -110 910 -12 74 24
155 59 155 67 0 2 -85 38 -190 81 -104 43 -189 80 -187 82 2 1 50 -6 108 -18
190 -37 614 -95 874 -121 176 -17 836 -17 975 0 297 36 428 59 665 118 157 39
372 105 443 136 26 11 124 42 217 68 209 59 391 120 504 166 392 162 585 371
646 699 24 125 17 386 -14 540 -51 249 -137 456 -268 640 -116 165 -141 216
-169 358 -36 176 -45 277 -34 382 21 198 79 355 247 663 176 323 213 421 213
559 0 57 3 71 14 67 19 -7 26 38 26 171 0 122 -21 226 -65 322 l-24 54 24 55
c25 56 17 66 -10 13 -9 -16 -20 -29 -25 -29 -5 0 -17 25 -25 55 -12 41 -14 59
-5 75 6 12 18 40 25 63 13 36 12 39 0 22 -48 -68 -47 -70 -41 65 6 139 25 232
85 428 61 198 81 307 88 477 20 506 -119 918 -407 1204 -261 260 -600 418
-992 460 -90 10 -332 13 -403 5z"/>
</g>
</svg>
